<svg width="1600px" height="570px" id="Layer_1" data-name="Layer 1" xmlns="http://www.w3.org/2000/svg" viewBox="0 0 216.46 76.86"><defs><style>.cls-1{fill:#fc0;}</style></defs><title>Logo</title><polygon class="cls-1" points="0 0 0 46.92 45.45 46.92 45.45 76.86 216.46 76.86 216.46 33.4 116.58 33.4 116.58 0 0 0"/><path d="M81.7,47.48H76.4v19.3h5.3Zm0-7.35H76.4v4.37h5.3Zm-7.43,0H55.54V66.77H61.4v-11H72.56V51.21H61.4V45.05H74.27ZM12.58,20.19c0-4.67,2-9.14,7.24-9.14a5.76,5.76,0,0,1,5.82,4.66h5.67c-.71-6.16-5.64-9.59-11.5-9.59-8.25,0-13.1,6.16-13.1,14.07C6.72,27.88,11.58,34,19.82,34c6.53,0,11.12-4.25,11.72-10.9H25.87c-.45,3.51-2.46,6-6,6-5.26,0-7.24-4.48-7.24-8.92M44.25,35.83l8.06-21.72H46.82L42.61,27.32h-.07L38.16,14.11H32.49l6.79,18.1c.6,1.53,0,3.43-1.83,3.62a27.84,27.84,0,0,1-3.1-.19V40a31.74,31.74,0,0,0,3.25.19c3.66,0,5.49-1.27,6.64-4.37M57.4,18.92c0-1.57,1.75-1.79,2.95-1.79,1.9,0,3.47.56,3.62,2.61h5c-.41-4.74-4.29-6.16-8.51-6.16s-8.4,1.27-8.4,6.2c0,3.4,3.06,4.48,6.12,5.15,3.81.82,6,1.38,6,3,0,1.87-1.94,2.46-3.47,2.46-2.09,0-4-.93-4.07-3.25h-5c.22,5.11,4.59,6.79,9.07,6.79s8.81-1.64,8.81-6.72c0-3.58-3-4.7-6.12-5.41s-6-1-6-2.87M79,33.63a20.29,20.29,0,0,0,3.1-.19V29.3a8.13,8.13,0,0,1-1.64.15c-1.79,0-2.24-.45-2.24-2.24V17.65h3.88V14.11H78.26V8.32H73v5.79H69.75v3.55H73V29c0,3.84,2.84,4.59,6.08,4.59m4.79-22.5h5.3V6.75h-5.3Zm0,22.28h5.3V14.11h-5.3Zm9.63,17.55c3.14,0,4.52,2.95,4.52,6.2S96.6,63.3,93.46,63.3s-4.52-2.95-4.52-6.16,1.38-6.2,4.52-6.2m1.83-4a7.13,7.13,0,0,0-6.08,2.87h-.07v-9.7h-5.3V66.77h5V64.31h.08c1.16,2.13,3.51,3,6.34,3,3.84,0,8-3.1,8-10.19S99.13,47,95.29,47m.83-23.11c0-2.84,1.12-6.27,4.52-6.27a3.61,3.61,0,0,1,3.92,3.32h5.19c-.34-4.93-4.52-7.32-9.07-7.32-6.27,0-9.85,4.44-9.85,10.45,0,5.79,3.92,9.89,9.74,9.89,5.08,0,8.62-2.8,9.29-7.91h-5.11c-.34,2.35-1.75,3.92-4.22,3.92-3.32,0-4.4-3.32-4.4-6.08m19.09,28a9.74,9.74,0,0,1,1.9.19V47.14A4,4,0,0,0,116,47a6.82,6.82,0,0,0-6.16,4.11h-.07V47.48h-5V66.77H110v-8.7c0-3.4,1.34-6.2,5.22-6.2m17.2,5.26c0,3.06-1.08,6.16-4.7,6.16s-4.66-3.1-4.66-6.16,1.08-6.2,4.66-6.2,4.7,3.1,4.7,6.2m5.3,0c0-6.16-3.92-10.19-10-10.19s-10,4-10,10.19,3.92,10.15,10,10.15,10-4,10-10.15m6.71-4.85c0-1.57,1.75-1.79,2.95-1.79,1.9,0,3.47.56,3.62,2.61h5c-.41-4.74-4.29-6.16-8.51-6.16s-8.4,1.27-8.4,6.2c0,3.4,3.06,4.48,6.12,5.15,3.81.82,6,1.38,6,3,0,1.87-1.94,2.46-3.47,2.46-2.09,0-4-.93-4.07-3.25h-5c.22,5.11,4.59,6.79,9.07,6.79s8.81-1.64,8.81-6.72c0-3.58-3-4.7-6.12-5.41s-6-1-6-2.87M164.85,42a3.59,3.59,0,0,0-.36-2.66,13.49,13.49,0,0,0-2.41-1,1.45,1.45,0,0,0-1.87,2,11,11,0,0,0,1.22,2.56,2,2,0,0,0,2.16.58,1.65,1.65,0,0,0,1.26-1.4m.47,23.11a1.12,1.12,0,0,1-.11-.47,19,19,0,0,1-.65-7.13c.07-1.51.14-3,.25-4.43a5.41,5.41,0,0,0-.65-3,1.7,1.7,0,0,0-2.91-.07c-1.26,1.94-.58,8.28-.43,11.34a10.32,10.32,0,0,0,1,3.64,14.7,14.7,0,0,0,.9,1.37,1.79,1.79,0,0,0,2.12.43,1.84,1.84,0,0,0,.5-1.73m18.29-2a7.45,7.45,0,0,0-2.12-4.82,2.47,2.47,0,0,1-.79-.65,6.14,6.14,0,0,0-3.17-1.91,5,5,0,0,0-1.3-.54c-1.29-.43-2.88-1-2.88-1.87,0-1.19,1.62-2,3.78-2h.72a3.84,3.84,0,0,1,1,.68c.32.29.65.61,1,.61,1.4-.47,1.55-1,1.48-2.05-.18-.25-.32-.43-.47-.61a4.6,4.6,0,0,1-.76-1.22,5.51,5.51,0,0,0-3.49-1.22,9.55,9.55,0,0,0-4.39.94,9.92,9.92,0,0,0-2.09,2.16,4.7,4.7,0,0,0-.07,3.78,4.37,4.37,0,0,0,1.26,2.2c1,1.62,2.77,2.2,4.39,2.66l1.08.4c.94.29,3.06,1.76,3.17,2.81-.76,1.44-1.91,1.73-3.56,1.73A11.05,11.05,0,0,1,171.76,63c-.36-.4-1.95-1.76-2.81-1.76a1,1,0,0,0-1,1,2.85,2.85,0,0,0,.22.83,5.49,5.49,0,0,0,1.94,2.34l.29.25c1.44,1.44,3.63,2.16,6.7,2.16a8.68,8.68,0,0,0,4.14-1,4.41,4.41,0,0,0,2.34-3.71m8,3.19a1.12,1.12,0,0,0-.29-1.44,11.27,11.27,0,0,0-1.66-1.15,2.29,2.29,0,0,0-2.66.72,1.45,1.45,0,0,0-.07,1.87,3.2,3.2,0,0,0,1.91,1.33c1.58,0,2.3-.43,2.77-1.33m8.76-2L199,63.5a2.5,2.5,0,0,0-2.81.25,1.57,1.57,0,0,0-.07,2.66,8.84,8.84,0,0,0,1,.61,2.22,2.22,0,0,0,2.56,0,2,2,0,0,0,.72-2.77m9.19,1a3.08,3.08,0,0,0-4.07-1.19,1.62,1.62,0,0,0-.61,2.34,4.48,4.48,0,0,0,2.59,1.51,7.12,7.12,0,0,0,1.55-.65,1.59,1.59,0,0,0,.54-2"/></svg>